<svg width="28" height="32" xmlns="http://www.w3.org/2000/svg">
 <title/>

 <g>
  <title>background</title>
  <rect fill="none" id="canvas_background" height="34" width="30" y="-1" x="-1"/>
 </g>
 <g>
  <title>Layer 1</title>
  <path fill="#6b8e23" stroke="null" id="svg_1" d="m14,4.706651a11.29335,11.29335 0 1 0 11.29335,11.29335a11.29335,11.29335 0 0 0 -11.29335,-11.29335zm0,20.973364a9.680014,9.680014 0 1 1 9.680014,-9.680014a9.680014,9.680014 0 0 1 -9.680014,9.680014z"/>
  <path fill="#6b8e23" stroke="null" transform="rotate(-180 14.000000000000002,16) " id="svg_2" d="m12.661095,13.095044l-5.032764,5.023268l1.348401,1.338905l5.023268,-5.023268l5.023268,5.023268l1.348401,-1.338905l-5.032764,-5.023268a1.899156,1.899156 0 0 0 -2.67781,0z"/>
 </g>
</svg>