<svg id="Layer_1" data-name="Layer 1" xmlns="http://www.w3.org/2000/svg" viewBox="0 0 210.72 182.74"><defs><style>.cls-1{fill:#6b8e23;}.cls-2{fill:#35495e;}</style></defs><title>icon-main</title><polygon class="cls-1" points="151.25 109.74 59.19 109.74 58.97 110.37 17.33 182.74 0 182.74 50.84 94.43 50.94 94.13 96.56 15.06 105.22 30.03 67.85 94.74 142.59 94.74 142.81 95.12 151.25 109.74"/><polygon class="cls-2" points="210.72 182.73 210.7 182.74 193.4 182.74 151.47 110.12 151.25 109.74 142.81 95.12 142.59 94.74 105.23 30.02 105.22 30 96.56 15 105.22 0 113.88 15 210.72 182.73"/><polygon class="cls-2" points="151.47 109.74 151.25 109.74 142.81 95.12 142.59 94.74 142.81 94.74 151.47 109.74"/></svg>