<svg id="Layer_1" data-name="Layer 1" xmlns="http://www.w3.org/2000/svg" viewBox="0 0 260.26 69.93"><defs><style>.cls-1{font-size:38px;fill:#454545;font-family:Anonymous Pro;}.cls-2{fill:#6b8e23;}.cls-3{fill:#35495e;}</style></defs><title>icon-with-title</title><text class="cls-1" transform="translate(94.3 47.94)">Acapedia</text><polygon class="cls-2" points="58.19 42.56 22.77 42.56 22.69 42.26 6.67 69.56 0 69.56 19.56 35.96 19.6 36.03 37.15 5.7 40.48 11.56 26.11 36.56 54.86 36.56 54.95 36.82 58.19 42.56"/><polygon class="cls-3" points="81.08 69.93 81.07 69.56 74.41 69.56 58.28 42 58.19 42.04 54.95 36.51 54.86 36.41 40.49 11.53 40.48 11.53 37.15 5.77 40.48 0 43.81 5.58 81.08 69.93"/><polygon class="cls-3" points="58.28 42.56 58.19 42.56 54.95 36.82 54.86 36.56 54.95 36.56 58.28 42.56"/></svg>